# xmcd
#
# Track frame offsets:
#	150
#	16507
#	33843
#	49965
#	62136
#	75978
#	90233
#	102801
#	121995
#	136303
#	144892
#	162359
#
# Disc length: 2392 seconds
# Revision: 0
# Processed by: cddbd v1.5.2PL0 Copyright (c) Steve Scherf et al.
# Submitted via: dBpowerAMP V12.0
#
DISCID=8509560c
DTITLE=Matt Manning - My Richmond River Home
DYEAR=2006
DGENRE=Country
TTITLE0=My Richmond River Home
TTITLE1=Gidgee Blossom
TTITLE2=Trains Run Here No More
TTITLE3=Bullockies Daydream
TTITLE4=My Heart is Where The Rope Flows Tonight
TTITLE5=The Murinji
TTITLE6=One Truckies Epitaph
TTITLE7=Where my Heart Is
TTITLE8=Kit Bags in The Cupboard
TTITLE9=Bucks Polka
TTITLE10=Women of the Outback
TTITLE11=Timeless Country
EXTD=
EXTT0=
EXTT1=
EXTT2=
EXTT3=
EXTT4=
EXTT5=
EXTT6=
EXTT7=
EXTT8=
EXTT9=
EXTT10=
EXTT11=
PLAYORDER=
